<svg xmlns="http://www.w3.org/2000/svg" data-name="Layer 1" viewBox="0 0 64 64" id="balance"><path fill="none" stroke="#000000" stroke-linecap="round" stroke-linejoin="round" stroke-width="2" d="M46,18V14.94a3.31,3.31,0,0,0-3.9-3.26l-28,5.09C11.5,17.25,9,19.33,9,22"></path><path fill="none" stroke="#000000" stroke-linecap="round" stroke-linejoin="round" stroke-width="2" d="M53,30V22a4,4,0,0,0-4-4H13a4,4,0,0,0-4,4V49a4,4,0,0,0,4,4H49a4,4,0,0,0,4-4V41"></path><path fill="none" stroke="#000000" stroke-linecap="round" stroke-linejoin="round" stroke-width="2" d="M42,41H54a2,2,0,0,0,2-2V32a2,2,0,0,0-2-2H42l-3,5.5Z"></path><circle cx="46" cy="35.5" r="2" fill="#000000"></circle></svg>