<svg width="97" height="98" viewBox="0 0 97 98" fill="none" xmlns="http://www.w3.org/2000/svg">
<path fill-rule="evenodd" clip-rule="evenodd" d="M73.8867 0C87.9062 0 97 9.1875 97 23.3516V74.6484C97 88.8125 87.9062 98 73.8867 98H23.1133C9.09375 98 0 88.8125 0 74.6484V23.3516C0 9.1875 9.09375 0 23.1133 0H73.8867Z" fill="url(#paint0_linear_1_9)"/>
<path fill-rule="evenodd" clip-rule="evenodd" d="M29.1 63.0904C28.5717 63.0189 28.0328 62.9572 27.4833 62.9062V51.1233L28.2917 49.8167L29.1 50.1442V63.0904C41.8744 64.8195 48.4758 72.275 48.4758 72.275C59.1886 60.8931 76.7917 62.8833 76.7917 62.8833C74.6496 56.2495 68.7083 49.8167 68.7083 49.8167L48.4758 57.996L28.2917 49.8167L20.2083 62.8833C23.4435 62.616 26.4087 62.7261 29.1 63.0904ZM48.5 22.8667L89.725 39.2L48.5 55.5333L7.275 39.2L48.5 22.8667ZM44.4583 39.2C44.4583 37.8469 46.2679 36.75 48.5 36.75C50.7321 36.75 52.5417 37.8469 52.5417 39.2C52.5417 40.5531 50.7321 41.65 48.5 41.65C47.9002 41.65 47.331 41.5708 46.8192 41.4288L29.9194 48.1712L26.9159 46.9813L44.6126 39.8727C44.5121 39.659 44.4583 39.4332 44.4583 39.2ZM25.8667 68.6078C25.8667 67.2504 26.9551 66.15 28.2917 66.15C29.631 66.15 30.7167 67.2415 30.7167 68.6078V79.2167H25.8667V68.6078Z" fill="white"/>
<defs>
<linearGradient id="paint0_linear_1_9" x1="0.276449" y1="0" x2="0.276449" y2="97.4414" gradientUnits="userSpaceOnUse">
<stop stop-color="#88D791"/>
<stop offset="1" stop-color="#88D791"/>
</linearGradient>
</defs>
</svg>
