<svg width="178" height="28" viewBox="0 0 178 28" fill="none" xmlns="http://www.w3.org/2000/svg">
<g filter="url(#filter0_d_1_10)">
<path d="M13.872 4.272L13.56 5.976H9L6.36 21H4.176L6.816 5.976H2.256L2.568 4.272H13.872ZM27.6004 7.848L25.2724 21H23.0884L23.4244 19.08C22.8964 19.752 22.2244 20.272 21.4084 20.64C20.5924 21.008 19.7444 21.192 18.8644 21.192C17.4884 21.192 16.3844 20.824 15.5524 20.088C14.7364 19.336 14.3284 18.264 14.3284 16.872C14.3284 16.52 14.3684 16.08 14.4484 15.552L15.8164 7.848H17.9764L16.6804 15.264C16.6164 15.6 16.5844 15.952 16.5844 16.32C16.5844 17.296 16.8484 18.04 17.3764 18.552C17.9204 19.048 18.6724 19.296 19.6324 19.296C20.7844 19.296 21.7604 18.936 22.5604 18.216C23.3764 17.496 23.8964 16.448 24.1204 15.072V15.144L25.4164 7.848H27.6004ZM32.2719 17.4C32.2239 17.64 32.1999 17.848 32.1999 18.024C32.1999 18.424 32.3199 18.712 32.5599 18.888C32.8159 19.064 33.2239 19.152 33.7839 19.152H35.3919L35.0559 21H33.0879C32.0479 21 31.2639 20.8 30.7359 20.4C30.2239 20 29.9679 19.344 29.9679 18.432C29.9679 18.08 29.9999 17.736 30.0639 17.4L31.4319 9.648H29.7519L30.0639 7.848H31.7679L32.3439 4.536H34.5519L33.9759 7.848H37.3839L37.0719 9.648H33.6399L32.2719 17.4ZM43.4861 21.216C42.3821 21.216 41.4061 20.992 40.5581 20.544C39.7261 20.08 39.0781 19.44 38.6141 18.624C38.1501 17.792 37.9181 16.832 37.9181 15.744C37.9181 14.256 38.2621 12.896 38.9501 11.664C39.6381 10.416 40.5821 9.432 41.7821 8.712C42.9981 7.992 44.3501 7.632 45.8381 7.632C46.9421 7.632 47.9181 7.864 48.7661 8.328C49.6301 8.776 50.2941 9.416 50.7581 10.248C51.2381 11.064 51.4781 12.024 51.4781 13.128C51.4781 14.616 51.1261 15.976 50.4221 17.208C49.7181 18.44 48.7581 19.416 47.5421 20.136C46.3261 20.856 44.9741 21.216 43.4861 21.216ZM43.7501 19.368C44.7901 19.368 45.7261 19.088 46.5581 18.528C47.3901 17.952 48.0381 17.2 48.5021 16.272C48.9821 15.328 49.2221 14.32 49.2221 13.248C49.2221 12.032 48.8701 11.104 48.1661 10.464C47.4621 9.808 46.5821 9.48 45.5261 9.48C44.4861 9.48 43.5581 9.768 42.7421 10.344C41.9261 10.904 41.2941 11.656 40.8461 12.6C40.3981 13.544 40.1741 14.56 40.1741 15.648C40.1741 16.832 40.5101 17.752 41.1821 18.408C41.8541 19.048 42.7101 19.368 43.7501 19.368ZM57.1337 10.344C57.6617 9.48 58.3257 8.808 59.1257 8.328C59.9257 7.848 60.8377 7.608 61.8617 7.608L61.4537 9.864H60.8777C59.7417 9.864 58.7897 10.168 58.0217 10.776C57.2697 11.384 56.7657 12.408 56.5097 13.848L55.2377 21H53.0537L55.3817 7.848H57.5657L57.1337 10.344ZM65.8228 5.712C65.4708 5.712 65.1748 5.6 64.9348 5.376C64.7108 5.136 64.5988 4.84 64.5988 4.488C64.5988 4.008 64.7748 3.6 65.1268 3.264C65.4788 2.912 65.8868 2.736 66.3508 2.736C66.7188 2.736 67.0148 2.848 67.2388 3.072C67.4628 3.296 67.5748 3.592 67.5748 3.96C67.5748 4.44 67.3988 4.856 67.0468 5.208C66.6948 5.544 66.2868 5.712 65.8228 5.712ZM66.5188 7.848L64.1908 21H62.0068L64.3348 7.848H66.5188ZM68.2491 14.376C68.4891 13.032 68.9691 11.856 69.6891 10.848C70.4251 9.824 71.3131 9.032 72.3531 8.472C73.4091 7.912 74.5291 7.632 75.7131 7.632C76.8651 7.632 77.8171 7.88 78.5691 8.376C79.3211 8.872 79.8411 9.496 80.1291 10.248L80.5611 7.848H82.7691L80.4411 21H78.2331L78.6891 18.552C78.1131 19.32 77.3531 19.96 76.4091 20.472C75.4651 20.968 74.4251 21.216 73.2891 21.216C72.2651 21.216 71.3611 21 70.5771 20.568C69.7931 20.12 69.1851 19.488 68.7531 18.672C68.3211 17.856 68.1051 16.912 68.1051 15.84C68.1051 15.36 68.1531 14.872 68.2491 14.376ZM79.4091 14.4C79.4731 14.064 79.5051 13.704 79.5051 13.32C79.5051 12.152 79.1531 11.232 78.4491 10.56C77.7611 9.872 76.8811 9.528 75.8091 9.528C74.9931 9.528 74.2091 9.72 73.4571 10.104C72.7211 10.488 72.0891 11.048 71.5611 11.784C71.0331 12.52 70.6811 13.384 70.5051 14.376C70.4411 14.712 70.4091 15.08 70.4091 15.48C70.4091 16.664 70.7531 17.6 71.4411 18.288C72.1291 18.96 73.0091 19.296 74.0811 19.296C74.8971 19.296 75.6731 19.104 76.4091 18.72C77.1611 18.32 77.8011 17.752 78.3291 17.016C78.8731 16.264 79.2331 15.392 79.4091 14.4ZM89.4598 3.24L86.3158 21H84.1318L87.2758 3.24H89.4598ZM113.027 4.272L110.075 21H107.891L109.234 13.368H100.739L99.3705 21H97.1865L100.163 4.272H102.347L101.027 11.664H109.547L110.843 4.272H113.027ZM114.116 14.376C114.356 13.032 114.836 11.856 115.556 10.848C116.292 9.824 117.18 9.032 118.22 8.472C119.276 7.912 120.396 7.632 121.58 7.632C122.732 7.632 123.684 7.88 124.436 8.376C125.188 8.872 125.708 9.496 125.996 10.248L126.428 7.848H128.636L126.308 21H124.1L124.556 18.552C123.98 19.32 123.22 19.96 122.276 20.472C121.332 20.968 120.292 21.216 119.156 21.216C118.132 21.216 117.228 21 116.444 20.568C115.66 20.12 115.052 19.488 114.62 18.672C114.188 17.856 113.972 16.912 113.972 15.84C113.972 15.36 114.02 14.872 114.116 14.376ZM125.276 14.4C125.34 14.064 125.372 13.704 125.372 13.32C125.372 12.152 125.02 11.232 124.316 10.56C123.628 9.872 122.748 9.528 121.676 9.528C120.86 9.528 120.076 9.72 119.324 10.104C118.588 10.488 117.956 11.048 117.428 11.784C116.9 12.52 116.548 13.384 116.372 14.376C116.308 14.712 116.276 15.08 116.276 15.48C116.276 16.664 116.62 17.6 117.308 18.288C117.996 18.96 118.876 19.296 119.948 19.296C120.764 19.296 121.54 19.104 122.276 18.72C123.028 18.32 123.668 17.752 124.196 17.016C124.74 16.264 125.1 15.392 125.276 14.4ZM135.255 18.936L141.303 7.848H143.655L136.167 21H133.599L130.767 7.848H133.119L135.255 18.936ZM151.492 7.632C152.596 7.632 153.548 7.848 154.348 8.28C155.164 8.696 155.78 9.288 156.196 10.056C156.628 10.808 156.844 11.672 156.844 12.648C156.844 12.984 156.804 13.392 156.724 13.872C156.66 14.288 156.556 14.72 156.412 15.168H145.9C145.868 15.488 145.852 15.72 145.852 15.864C145.852 16.968 146.18 17.832 146.836 18.456C147.508 19.064 148.38 19.368 149.452 19.368C150.396 19.368 151.22 19.152 151.924 18.72C152.644 18.272 153.188 17.68 153.556 16.944H155.908C155.332 18.208 154.444 19.24 153.244 20.04C152.06 20.824 150.684 21.216 149.116 21.216C147.468 21.216 146.14 20.744 145.132 19.8C144.14 18.84 143.644 17.536 143.644 15.888C143.644 15.424 143.692 14.928 143.788 14.4C144.028 13.04 144.516 11.848 145.252 10.824C145.988 9.8 146.892 9.016 147.964 8.472C149.052 7.912 150.228 7.632 151.492 7.632ZM154.516 13.584C154.564 13.264 154.588 12.968 154.588 12.696C154.588 11.672 154.26 10.88 153.604 10.32C152.964 9.76 152.124 9.48 151.084 9.48C149.964 9.48 148.948 9.848 148.036 10.584C147.124 11.304 146.508 12.304 146.188 13.584H154.516ZM167.119 7.608C168.479 7.608 169.567 7.976 170.383 8.712C171.199 9.432 171.607 10.488 171.607 11.88C171.607 12.392 171.567 12.848 171.487 13.248L170.119 21H167.959L169.279 13.56C169.343 13.224 169.375 12.872 169.375 12.504C169.375 11.528 169.103 10.784 168.559 10.272C168.031 9.76 167.287 9.504 166.327 9.504C165.175 9.504 164.191 9.864 163.375 10.584C162.575 11.304 162.055 12.352 161.815 13.728V13.68L160.519 21H158.335L160.663 7.848H162.847L162.511 9.744C163.055 9.056 163.735 8.528 164.551 8.16C165.367 7.792 166.223 7.608 167.119 7.608Z" fill="#B8DFBC"/>
<path d="M13.872 4.272L14.8556 4.4521L15.0717 3.272H13.872V4.272ZM13.56 5.976V6.976H14.3935L14.5436 6.1561L13.56 5.976ZM9 5.976V4.976H8.1604L8.01509 5.80293L9 5.976ZM6.36 21V22H7.1996L7.34491 21.1731L6.36 21ZM4.176 21L3.19109 20.8269L2.98496 22H4.176V21ZM6.816 5.976L7.80091 6.14907L8.00704 4.976H6.816V5.976ZM2.256 5.976L1.27235 5.79589L1.05628 6.976H2.256V5.976ZM2.568 4.272V3.272H1.73447L1.58435 4.09189L2.568 4.272ZM12.8884 4.09189L12.5764 5.79589L14.5436 6.1561L14.8556 4.4521L12.8884 4.09189ZM13.56 4.976H9V6.976H13.56V4.976ZM8.01509 5.80293L5.37509 20.8269L7.34491 21.1731L9.98491 6.14907L8.01509 5.80293ZM6.36 20H4.176V22H6.36V20ZM5.16091 21.1731L7.80091 6.14907L5.83109 5.80293L3.19109 20.8269L5.16091 21.1731ZM6.816 4.976H2.256V6.976H6.816V4.976ZM3.23965 6.1561L3.55165 4.4521L1.58435 4.09189L1.27235 5.79589L3.23965 6.1561ZM2.568 5.272H13.872V3.272H2.568V5.272ZM27.6004 7.848L28.5851 8.0223L28.7929 6.848H27.6004V7.848ZM25.2724 21V22H26.1109L26.2571 21.1743L25.2724 21ZM23.0884 21L22.1033 20.8276L21.8982 22H23.0884V21ZM23.4244 19.08L24.4094 19.2524L22.6381 18.4622L23.4244 19.08ZM21.4084 20.64L21.8195 21.5516L21.8195 21.5516L21.4084 20.64ZM15.5524 20.088L14.8747 20.8234L14.8822 20.8303L14.8898 20.837L15.5524 20.088ZM14.4484 15.552L13.4638 15.3772L13.4616 15.3897L13.4597 15.4022L14.4484 15.552ZM15.8164 7.848V6.848H14.9783L14.8318 7.67316L15.8164 7.848ZM17.9764 7.848L18.9614 8.02015L19.1663 6.848H17.9764V7.848ZM16.6804 15.264L17.6627 15.4511L17.6641 15.4436L17.6654 15.4361L16.6804 15.264ZM17.3764 18.552L16.6802 19.2699L16.6913 19.2806L16.7026 19.291L17.3764 18.552ZM22.5604 18.216L21.8987 17.4661L21.8914 17.4727L22.5604 18.216ZM24.1204 15.072H25.1204L23.1334 14.9113L24.1204 15.072ZM24.1204 15.144H23.1204L25.105 15.3189L24.1204 15.144ZM25.4164 7.848V6.848H24.5784L24.4318 7.67311L25.4164 7.848ZM26.6157 7.6737L24.2877 20.8257L26.2571 21.1743L28.5851 8.0223L26.6157 7.6737ZM25.2724 20H23.0884V22H25.2724V20ZM24.0734 21.1724L24.4094 19.2524L22.4393 18.9076L22.1033 20.8276L24.0734 21.1724ZM22.6381 18.4622C22.2144 19.0014 21.6735 19.4234 20.9973 19.7284L21.8195 21.5516C22.7752 21.1206 23.5784 20.5026 24.2107 19.6978L22.6381 18.4622ZM20.9973 19.7284C20.3082 20.0392 19.6001 20.192 18.8644 20.192V22.192C19.8886 22.192 20.8766 21.9768 21.8195 21.5516L20.9973 19.7284ZM18.8644 20.192C17.6718 20.192 16.8233 19.8772 16.2149 19.339L14.8898 20.837C15.9454 21.7708 17.3049 22.192 18.8644 22.192V20.192ZM16.2301 19.3526C15.6694 18.836 15.3284 18.0606 15.3284 16.872H13.3284C13.3284 18.4674 13.8033 19.836 14.8747 20.8234L16.2301 19.3526ZM15.3284 16.872C15.3284 16.5887 15.3612 16.2028 15.4371 15.7018L13.4597 15.4022C13.3756 15.9572 13.3284 16.4513 13.3284 16.872H15.3284ZM15.433 15.7268L16.801 8.02283L14.8318 7.67316L13.4638 15.3772L15.433 15.7268ZM15.8164 8.848H17.9764V6.848H15.8164V8.848ZM16.9913 7.67585L15.6953 15.0919L17.6654 15.4361L18.9614 8.02015L16.9913 7.67585ZM15.698 15.0769C15.6214 15.479 15.5844 15.8939 15.5844 16.32H17.5844C17.5844 16.0101 17.6113 15.721 17.6627 15.4511L15.698 15.0769ZM15.5844 16.32C15.5844 17.4745 15.9006 18.5139 16.6802 19.2699L18.0725 17.8341C17.7961 17.5661 17.5844 17.1175 17.5844 16.32H15.5844ZM16.7026 19.291C17.4812 20.0009 18.5009 20.296 19.6324 20.296V18.296C18.8438 18.296 18.3595 18.0951 18.0501 17.813L16.7026 19.291ZM19.6324 20.296C21.0125 20.296 22.2321 19.8568 23.2293 18.9593L21.8914 17.4727C21.2886 18.0152 20.5563 18.296 19.6324 18.296V20.296ZM23.222 18.9658C24.2551 18.0543 24.8569 16.7715 25.1074 15.2327L23.1334 14.9113C22.9359 16.1245 22.4976 16.9377 21.8988 17.4662L23.222 18.9658ZM23.1204 15.072V15.144H25.1204V15.072H23.1204ZM25.105 15.3189L26.401 8.02289L24.4318 7.67311L23.1358 14.9691L25.105 15.3189ZM25.4164 8.848H27.6004V6.848H25.4164V8.848ZM32.2719 17.4L33.2525 17.5961L33.2547 17.585L33.2567 17.5738L32.2719 17.4ZM32.5599 18.888L31.9686 19.6944L31.9809 19.7034L31.9934 19.712L32.5599 18.888ZM35.3919 19.152L36.3758 19.3309L36.5902 18.152H35.3919V19.152ZM35.0559 21V22H35.8905L36.0398 21.1789L35.0559 21ZM30.7359 20.4L30.1203 21.188L30.1262 21.1926L30.1321 21.1971L30.7359 20.4ZM30.0639 17.4L31.0464 17.5871L31.0487 17.5738L30.0639 17.4ZM31.4319 9.648L32.4167 9.82178L32.6239 8.648H31.4319V9.648ZM29.7519 9.648L28.7666 9.47721L28.5637 10.648H29.7519V9.648ZM30.0639 7.848V6.848H29.2224L29.0786 7.67721L30.0639 7.848ZM31.7679 7.848V8.848H32.609L32.7531 8.01934L31.7679 7.848ZM32.3439 4.536V3.536H31.5028L31.3587 4.36466L32.3439 4.536ZM34.5519 4.536L35.5371 4.70734L35.7409 3.536H34.5519V4.536ZM33.9759 7.848L32.9907 7.67666L32.787 8.848H33.9759V7.848ZM37.3839 7.848L38.3692 8.01879L38.5722 6.848H37.3839V7.848ZM37.0719 9.648V10.648H37.9135L38.0572 9.81879L37.0719 9.648ZM33.6399 9.648V8.648H32.801L32.6552 9.47421L33.6399 9.648ZM31.2914 17.2039C31.235 17.4855 31.1999 17.7622 31.1999 18.024H33.1999C33.1999 17.9338 33.2128 17.7945 33.2525 17.5961L31.2914 17.2039ZM31.1999 18.024C31.1999 18.6236 31.3889 19.2693 31.9686 19.6944L33.1513 18.0816C33.1652 18.0918 33.1798 18.1056 33.1925 18.122C33.205 18.1381 33.2111 18.1508 33.213 18.1554C33.2159 18.1624 33.1999 18.1277 33.1999 18.024H31.1999ZM31.9934 19.712C32.5035 20.0627 33.163 20.152 33.7839 20.152V18.152C33.5524 18.152 33.3846 18.1335 33.2688 18.1085C33.151 18.0831 33.117 18.0575 33.1265 18.064L31.9934 19.712ZM33.7839 20.152H35.3919V18.152H33.7839V20.152ZM34.4081 18.9731L34.0721 20.8211L36.0398 21.1789L36.3758 19.3309L34.4081 18.9731ZM35.0559 20H33.0879V22H35.0559V20ZM33.0879 20C32.1498 20 31.6199 19.8151 31.3398 19.6029L30.1321 21.1971C30.908 21.7849 31.946 22 33.0879 22V20ZM31.3516 19.612C31.1696 19.4698 30.9679 19.1674 30.9679 18.432H28.9679C28.9679 19.5206 29.2783 20.5302 30.1203 21.188L31.3516 19.612ZM30.9679 18.432C30.9679 18.141 30.9944 17.8597 31.0463 17.5871L29.0816 17.2129C29.0055 17.6123 28.9679 18.019 28.9679 18.432H30.9679ZM31.0487 17.5738L32.4167 9.82178L30.4472 9.47421L29.0792 17.2262L31.0487 17.5738ZM31.4319 8.648H29.7519V10.648H31.4319V8.648ZM30.7372 9.81879L31.0492 8.01879L29.0786 7.67721L28.7666 9.47721L30.7372 9.81879ZM30.0639 8.848H31.7679V6.848H30.0639V8.848ZM32.7531 8.01934L33.3291 4.70734L31.3587 4.36466L30.7827 7.67666L32.7531 8.01934ZM32.3439 5.536H34.5519V3.536H32.3439V5.536ZM33.5667 4.36466L32.9907 7.67666L34.9611 8.01934L35.5371 4.70734L33.5667 4.36466ZM33.9759 8.848H37.3839V6.848H33.9759V8.848ZM36.3986 7.67721L36.0866 9.47721L38.0572 9.81879L38.3692 8.01879L36.3986 7.67721ZM37.0719 8.648H33.6399V10.648H37.0719V8.648ZM32.6552 9.47421L31.2872 17.2262L33.2567 17.5738L34.6247 9.82178L32.6552 9.47421ZM40.5581 20.544L40.0711 21.4174L40.081 21.4229L40.091 21.4282L40.5581 20.544ZM38.6141 18.624L37.7407 19.1111L37.7448 19.1183L38.6141 18.624ZM38.9501 11.664L39.8232 12.1516L39.8259 12.1468L38.9501 11.664ZM41.7821 8.712L41.2726 7.85151L41.2676 7.85451L41.7821 8.712ZM48.7661 8.328L48.2861 9.20526L48.2959 9.21062L48.3058 9.21575L48.7661 8.328ZM50.7581 10.248L49.8848 10.7351L49.8904 10.7451L49.8962 10.755L50.7581 10.248ZM50.4221 17.208L51.2904 17.7041L51.2904 17.7041L50.4221 17.208ZM47.5421 20.136L47.0326 19.2755L47.0326 19.2755L47.5421 20.136ZM46.5581 18.528L47.1165 19.3577L47.1273 19.3502L46.5581 18.528ZM48.5021 16.272L47.6107 15.8187L47.6077 15.8248L48.5021 16.272ZM48.1661 10.464L47.4843 11.1957L47.4935 11.2039L48.1661 10.464ZM42.7421 10.344L43.308 11.1686L43.3188 11.161L42.7421 10.344ZM40.8461 12.6L39.9427 12.1713L39.9427 12.1713L40.8461 12.6ZM41.1821 18.408L40.4835 19.1236L40.4925 19.1321L41.1821 18.408ZM43.4861 20.216C42.5202 20.216 41.7089 20.021 41.0252 19.6598L40.091 21.4282C41.1034 21.963 42.2441 22.216 43.4861 22.216V20.216ZM41.0452 19.6706C40.3704 19.2943 39.8556 18.7843 39.4834 18.1297L37.7448 19.1183C38.3006 20.0957 39.0819 20.8657 40.0711 21.4174L41.0452 19.6706ZM39.4875 18.1369C39.1177 17.4739 38.9181 16.686 38.9181 15.744H36.9181C36.9181 16.978 37.1825 18.1101 37.7408 19.1111L39.4875 18.1369ZM38.9181 15.744C38.9181 14.417 39.223 13.2263 39.8232 12.1516L38.077 11.1764C37.3012 12.5657 36.9181 14.0949 36.9181 15.744H38.9181ZM39.8259 12.1468C40.4303 11.0504 41.2509 10.1969 42.2966 9.56949L41.2676 7.85451C39.9134 8.66707 38.846 9.78159 38.0744 11.1812L39.8259 12.1468ZM42.2916 9.57247C43.3451 8.94872 44.5195 8.632 45.8381 8.632V6.632C44.1807 6.632 42.6512 7.03528 41.2726 7.85152L42.2916 9.57247ZM45.8381 8.632C46.7985 8.632 47.6051 8.83262 48.2861 9.20526L49.2461 7.45074C48.2312 6.89538 47.0858 6.632 45.8381 6.632V8.632ZM48.3058 9.21575C48.9998 9.57562 49.5184 10.0781 49.8848 10.7351L51.6315 9.76093C51.0699 8.7539 50.2604 7.97638 49.2264 7.44025L48.3058 9.21575ZM49.8962 10.755C50.2717 11.3934 50.4781 12.1723 50.4781 13.128H52.4781C52.4781 11.8757 52.2045 10.7346 51.6201 9.74098L49.8962 10.755ZM50.4781 13.128C50.4781 14.4508 50.1673 15.6384 49.5539 16.7119L51.2904 17.7041C52.085 16.3136 52.4781 14.7812 52.4781 13.128H50.4781ZM49.5539 16.7119C48.9355 17.794 48.0989 18.6442 47.0326 19.2755L48.0516 20.9965C49.4174 20.1878 50.5007 19.086 51.2904 17.7041L49.5539 16.7119ZM47.0326 19.2755C45.9792 19.8993 44.8047 20.216 43.4861 20.216V22.216C45.1435 22.216 46.6731 21.8127 48.0516 20.9965L47.0326 19.2755ZM43.7501 20.368C44.9813 20.368 46.1131 20.0329 47.1165 19.3576L45.9997 17.6984C45.3391 18.1431 44.599 18.368 43.7501 18.368V20.368ZM47.1273 19.3502C48.1011 18.676 48.8594 17.7936 49.3966 16.7192L47.6077 15.8248C47.2169 16.6064 46.6791 17.228 45.9889 17.7058L47.1273 19.3502ZM49.3935 16.7252C49.9458 15.6391 50.2221 14.4755 50.2221 13.248H48.2221C48.2221 14.1645 48.0184 15.0169 47.6107 15.8188L49.3935 16.7252ZM50.2221 13.248C50.2221 11.8337 49.8059 10.6032 48.8388 9.72406L47.4935 11.2039C47.9344 11.6048 48.2221 12.2303 48.2221 13.248H50.2221ZM48.8479 9.73239C47.94 8.88646 46.8083 8.48 45.5261 8.48V10.48C46.3559 10.48 46.9842 10.7295 47.4844 11.1956L48.8479 9.73239ZM45.5261 8.48C44.2887 8.48 43.1574 8.82682 42.1654 9.52703L43.3188 11.161C43.9588 10.7092 44.6836 10.48 45.5261 10.48V8.48ZM42.1763 9.51949C41.2066 10.185 40.462 11.0771 39.9427 12.1713L41.7496 13.0287C42.1263 12.2349 42.6457 11.623 43.308 11.1685L42.1763 9.51949ZM39.9427 12.1713C39.4285 13.2548 39.1741 14.418 39.1741 15.648H41.1741C41.1741 14.702 41.3678 13.8332 41.7496 13.0287L39.9427 12.1713ZM39.1741 15.648C39.1741 17.0271 39.5715 18.2332 40.4836 19.1236L41.8807 17.6924C41.4488 17.2708 41.1741 16.6369 41.1741 15.648H39.1741ZM40.4925 19.1321C41.3734 19.9711 42.487 20.368 43.7501 20.368V18.368C42.9333 18.368 42.3348 18.1249 41.8718 17.6839L40.4925 19.1321ZM57.1337 10.344L56.1483 10.1735L57.987 10.8654L57.1337 10.344ZM59.1257 8.328L59.6402 9.18549L59.6402 9.18549L59.1257 8.328ZM61.8617 7.608L62.8457 7.78596L63.0588 6.608H61.8617V7.608ZM61.4537 9.864V10.864H62.2891L62.4377 10.042L61.4537 9.864ZM58.0217 10.776L57.401 9.99191L57.393 9.99837L58.0217 10.776ZM56.5097 13.848L57.4942 14.0231L57.4943 14.023L56.5097 13.848ZM55.2377 21V22H56.0755L56.2222 21.1751L55.2377 21ZM53.0537 21L52.069 20.8257L51.8611 22H53.0537V21ZM55.3817 7.848V6.848H54.5431L54.397 7.6737L55.3817 7.848ZM57.5657 7.848L58.551 8.01854L58.7536 6.848H57.5657V7.848ZM57.987 10.8654C58.4382 10.1271 58.9902 9.5755 59.6402 9.18549L58.6112 7.47051C57.6612 8.0405 56.8852 8.83286 56.2804 9.82255L57.987 10.8654ZM59.6402 9.18549C60.2698 8.8077 61.0007 8.608 61.8617 8.608V6.608C60.6747 6.608 59.5815 6.8883 58.6112 7.47051L59.6402 9.18549ZM60.8777 7.43004L60.4697 9.68604L62.4377 10.042L62.8457 7.78596L60.8777 7.43004ZM61.4537 8.864H60.8777V10.864H61.4537V8.864ZM60.8777 8.864C59.554 8.864 58.3731 9.22239 57.401 9.99195L58.6424 11.56C59.2063 11.1136 59.9294 10.864 60.8777 10.864V8.864ZM57.393 9.99837C56.3781 10.8189 55.8024 12.1131 55.5251 13.673L57.4943 14.023C57.7289 12.7029 58.1612 11.9491 58.6504 11.5536L57.393 9.99837ZM55.5251 13.6729L54.2531 20.8249L56.2222 21.1751L57.4942 14.0231L55.5251 13.6729ZM55.2377 20H53.0537V22H55.2377V20ZM54.0384 21.1743L56.3664 8.0223L54.397 7.6737L52.069 20.8257L54.0384 21.1743ZM55.3817 8.848H57.5657V6.848H55.3817V8.848ZM56.5803 7.67746L56.1483 10.1735L58.119 10.5145L58.551 8.01854L56.5803 7.67746ZM64.9348 5.376L64.2038 6.05832L64.2273 6.08353L64.2525 6.10705L64.9348 5.376ZM65.1268 3.264L65.8173 3.98736L65.8257 3.97933L65.8339 3.97111L65.1268 3.264ZM67.2388 3.072L67.9459 2.36489L67.9459 2.36489L67.2388 3.072ZM67.0468 5.208L67.7373 5.93135L67.7457 5.92333L67.7539 5.91511L67.0468 5.208ZM66.5188 7.848L67.5035 8.0223L67.7114 6.848H66.5188V7.848ZM64.1908 21V22H65.0294L65.1755 21.1743L64.1908 21ZM62.0068 21L61.0221 20.8257L60.8143 22H62.0068V21ZM64.3348 7.848V6.848H63.4963L63.3501 7.6737L64.3348 7.848ZM65.8228 4.712C65.7041 4.712 65.6578 4.68292 65.6171 4.64494L64.2525 6.10705C64.6918 6.51708 65.2375 6.712 65.8228 6.712V4.712ZM65.6659 4.69368C65.6279 4.65299 65.5988 4.60673 65.5988 4.488H63.5988C63.5988 5.07326 63.7937 5.61901 64.2038 6.05832L65.6659 4.69368ZM65.5988 4.488C65.5988 4.28552 65.6599 4.1376 65.8173 3.98736L64.4363 2.54064C63.8897 3.06239 63.5988 3.73048 63.5988 4.488H65.5988ZM65.8339 3.97111C66.0135 3.79153 66.1727 3.736 66.3508 3.736V1.736C65.601 1.736 64.9441 2.03247 64.4197 2.55689L65.8339 3.97111ZM66.3508 3.736C66.5 3.736 66.5257 3.77306 66.5317 3.77911L67.9459 2.36489C67.504 1.92294 66.9377 1.736 66.3508 1.736V3.736ZM66.5317 3.77911C66.5378 3.78515 66.5748 3.81086 66.5748 3.96H68.5748C68.5748 3.37314 68.3879 2.80685 67.9459 2.36489L66.5317 3.77911ZM66.5748 3.96C66.5748 4.164 66.5119 4.32866 66.3397 4.50089L67.7539 5.91511C68.2857 5.38334 68.5748 4.716 68.5748 3.96H66.5748ZM66.3563 4.48464C66.1803 4.65264 66.0161 4.712 65.8228 4.712V6.712C66.5575 6.712 67.2093 6.43536 67.7373 5.93135L66.3563 4.48464ZM65.5341 7.6737L63.2061 20.8257L65.1755 21.1743L67.5035 8.0223L65.5341 7.6737ZM64.1908 20H62.0068V22H64.1908V20ZM62.9915 21.1743L65.3195 8.0223L63.3501 7.6737L61.0221 20.8257L62.9915 21.1743ZM64.3348 8.848H66.5188V6.848H64.3348V8.848ZM68.2491 14.376L69.2308 14.566L69.2322 14.5589L69.2335 14.5518L68.2491 14.376ZM69.6891 10.848L68.877 10.2644L68.8753 10.2668L69.6891 10.848ZM72.3531 8.472L71.8846 7.58852L71.879 7.59153L72.3531 8.472ZM78.5691 8.376L78.0185 9.21077L78.0185 9.21077L78.5691 8.376ZM80.1291 10.248L79.1952 10.6056L80.4779 13.9549L81.1132 10.4252L80.1291 10.248ZM80.5611 7.848V6.848H79.725L79.5769 7.67085L80.5611 7.848ZM82.7691 7.848L83.7538 8.0223L83.9616 6.848H82.7691V7.848ZM80.4411 21V22H81.2796L81.4258 21.1743L80.4411 21ZM78.2331 21L77.25 20.8169L77.0296 22H78.2331V21ZM78.6891 18.552L79.6722 18.7351L77.8891 17.952L78.6891 18.552ZM76.4091 20.472L76.8742 21.3573L76.8858 21.351L76.4091 20.472ZM70.5771 20.568L70.0809 21.4362L70.0877 21.4401L70.0945 21.4438L70.5771 20.568ZM79.4091 14.4L78.4266 14.2129L78.4244 14.2253L79.4091 14.4ZM78.4491 10.56L77.742 11.2671L77.7502 11.2753L77.7586 11.2834L78.4491 10.56ZM73.4571 10.104L73.0023 9.21336L72.9945 9.21741L73.4571 10.104ZM71.5611 11.784L72.3736 12.3669L72.3736 12.3669L71.5611 11.784ZM70.5051 14.376L71.4875 14.5631L71.4897 14.5507L70.5051 14.376ZM71.4411 18.288L70.7339 18.9952L70.7423 19.0034L71.4411 18.288ZM76.4091 18.72L76.8716 19.6066L76.8787 19.6029L76.4091 18.72ZM78.3291 17.016L77.5188 16.4299L77.5165 16.4331L78.3291 17.016ZM69.2335 14.5518C69.4501 13.3388 69.8776 12.3045 70.5028 11.4292L68.8753 10.2668C68.0605 11.4075 67.528 12.7252 67.2646 14.2002L69.2335 14.5518ZM70.5011 11.4316C71.1546 10.5224 71.9298 9.83565 72.8272 9.35247L71.879 7.59153C70.6963 8.22835 69.6956 9.12557 68.877 10.2644L70.5011 11.4316ZM72.8216 9.35546C73.7347 8.87123 74.694 8.632 75.7131 8.632V6.632C74.3641 6.632 73.0834 6.95277 71.8846 7.58854L72.8216 9.35546ZM75.7131 8.632C76.7235 8.632 77.4699 8.84895 78.0185 9.21077L79.1197 7.54123C78.1642 6.91105 77.0066 6.632 75.7131 6.632V8.632ZM78.0185 9.21077C78.6176 9.60596 78.9907 10.0717 79.1952 10.6056L81.0629 9.89035C80.6914 8.92028 80.0245 8.13804 79.1197 7.54123L78.0185 9.21077ZM81.1132 10.4252L81.5452 8.02515L79.5769 7.67085L79.1449 10.0708L81.1132 10.4252ZM80.5611 8.848H82.7691V6.848H80.5611V8.848ZM81.7844 7.6737L79.4564 20.8257L81.4258 21.1743L83.7538 8.0223L81.7844 7.6737ZM80.4411 20H78.2331V22H80.4411V20ZM79.2162 21.1831L79.6722 18.7351L77.706 18.3689L77.25 20.8169L79.2162 21.1831ZM77.8891 17.952C77.4092 18.5918 76.7648 19.1414 75.9323 19.593L76.8858 21.351C77.9413 20.7786 78.8169 20.0482 79.4891 19.152L77.8891 17.952ZM75.9439 19.5868C75.1527 20.0025 74.2739 20.216 73.2891 20.216V22.216C74.5762 22.216 75.7774 21.9335 76.8742 21.3572L75.9439 19.5868ZM73.2891 20.216C72.4093 20.216 71.6757 20.0316 71.0597 19.6922L70.0945 21.4438C71.0464 21.9684 72.1209 22.216 73.2891 22.216V20.216ZM71.0732 19.6998C70.4576 19.348 69.9823 18.8566 69.6369 18.2041L67.8693 19.1399C68.3878 20.1194 69.1285 20.892 70.0809 21.4362L71.0732 19.6998ZM69.6369 18.2041C69.2926 17.5539 69.1051 16.7753 69.1051 15.84H67.1051C67.1051 17.0487 67.3495 18.1581 67.8693 19.1399L69.6369 18.2041ZM69.1051 15.84C69.1051 15.427 69.1463 15.0027 69.2308 14.566L67.2673 14.186C67.1598 14.7413 67.1051 15.293 67.1051 15.84H69.1051ZM80.3914 14.5871C80.4685 14.1825 80.5051 13.7593 80.5051 13.32H78.5051C78.5051 13.6487 78.4776 13.9455 78.4267 14.2129L80.3914 14.5871ZM80.5051 13.32C80.5051 11.9377 80.0802 10.7345 79.1395 9.83664L77.7586 11.2834C78.226 11.7295 78.5051 12.3663 78.5051 13.32H80.5051ZM79.1562 9.85289C78.2607 8.95739 77.1166 8.528 75.8091 8.528V10.528C76.6455 10.528 77.2615 10.7866 77.742 11.2671L79.1562 9.85289ZM75.8091 8.528C74.8294 8.528 73.89 8.76008 73.0023 9.21339L73.9118 10.9946C74.5281 10.6799 75.1568 10.528 75.8091 10.528V8.528ZM72.9945 9.21741C72.1073 9.68028 71.3593 10.3497 70.7485 11.2011L72.3736 12.3669C72.8188 11.7463 73.3348 11.2957 73.9196 10.9906L72.9945 9.21741ZM70.7485 11.2011C70.124 12.0716 69.7196 13.0788 69.5204 14.2013L71.4897 14.5507C71.6425 13.6892 71.9421 12.9684 72.3736 12.3669L70.7485 11.2011ZM69.5227 14.1889C69.4452 14.5959 69.4091 15.0275 69.4091 15.48H71.4091C71.4091 15.1325 71.4369 14.8281 71.4874 14.5631L69.5227 14.1889ZM69.4091 15.48C69.4091 16.8679 69.8191 18.0803 70.734 18.9951L72.1482 17.5809C71.687 17.1197 71.4091 16.4601 71.4091 15.48H69.4091ZM70.7423 19.0034C71.6393 19.8795 72.7806 20.296 74.0811 20.296V18.296C73.2376 18.296 72.6189 18.0405 72.1398 17.5726L70.7423 19.0034ZM74.0811 20.296C75.061 20.296 75.9954 20.0637 76.8716 19.6066L75.9465 17.8334C75.3507 18.1443 74.7331 18.296 74.0811 18.296V20.296ZM76.8787 19.6029C77.7751 19.126 78.5297 18.4518 79.1416 17.5989L77.5165 16.4331C77.0724 17.0522 76.547 17.514 75.9395 17.8371L76.8787 19.6029ZM79.1393 17.6021C79.7791 16.7177 80.1936 15.7023 80.3937 14.5747L78.4244 14.2253C78.2725 15.0817 77.967 15.8103 77.5188 16.4299L79.1393 17.6021ZM89.4598 3.24L90.4445 3.41432L90.6524 2.24H89.4598V3.24ZM86.3158 21V22H87.1543L87.3005 21.1743L86.3158 21ZM84.1318 21L83.1471 20.8257L82.9392 22H84.1318V21ZM87.2758 3.24V2.24H86.4373L86.2911 3.06568L87.2758 3.24ZM88.4751 3.06568L85.3311 20.8257L87.3005 21.1743L90.4445 3.41432L88.4751 3.06568ZM86.3158 20H84.1318V22H86.3158V20ZM85.1165 21.1743L88.2605 3.41432L86.2911 3.06568L83.1471 20.8257L85.1165 21.1743ZM87.2758 4.24H89.4598V2.24H87.2758V4.24ZM113.027 4.272L114.011 4.44578L114.218 3.272H113.027V4.272ZM110.075 21V22H110.913L111.059 21.1738L110.075 21ZM107.891 21L106.906 20.8266L106.699 22H107.891V21ZM109.234 13.368L110.219 13.5414L110.426 12.368H109.234V13.368ZM100.739 13.368V12.368H99.9018L99.7542 13.1916L100.739 13.368ZM99.3705 21V22H100.207L100.355 21.1764L99.3705 21ZM97.1865 21L96.202 20.8248L95.9929 22H97.1865V21ZM100.163 4.272V3.272H99.3247L99.178 4.09684L100.163 4.272ZM102.347 4.272L103.331 4.44779L103.541 3.272H102.347V4.272ZM101.027 11.664L100.042 11.4882L99.8321 12.664H101.027V11.664ZM109.547 11.664V12.664H110.386L110.531 11.8367L109.547 11.664ZM110.843 4.272V3.272H110.003L109.858 4.09931L110.843 4.272ZM112.042 4.09821L109.09 20.8262L111.059 21.1738L114.011 4.44578L112.042 4.09821ZM110.075 20H107.891V22H110.075V20ZM108.875 21.1734L110.219 13.5414L108.25 13.1946L106.906 20.8266L108.875 21.1734ZM109.234 12.368H100.739V14.368H109.234V12.368ZM99.7542 13.1916L98.3862 20.8236L100.355 21.1764L101.723 13.5444L99.7542 13.1916ZM99.3705 20H97.1865V22H99.3705V20ZM98.171 21.1752L101.147 4.44715L99.178 4.09684L96.202 20.8248L98.171 21.1752ZM100.163 5.272H102.347V3.272H100.163V5.272ZM101.362 4.09621L100.042 11.4882L102.011 11.8398L103.331 4.44779L101.362 4.09621ZM101.027 12.664H109.547V10.664H101.027V12.664ZM110.531 11.8367L111.827 4.44469L109.858 4.09931L108.562 11.4913L110.531 11.8367ZM110.843 5.272H113.027V3.272H110.843V5.272ZM114.116 14.376L115.098 14.566L115.099 14.5589L115.101 14.5518L114.116 14.376ZM115.556 10.848L114.744 10.2644L114.743 10.2668L115.556 10.848ZM118.22 8.472L117.752 7.58852L117.746 7.59153L118.22 8.472ZM124.436 8.376L123.886 9.21077L123.886 9.21077L124.436 8.376ZM125.996 10.248L125.062 10.6056L126.345 13.9549L126.98 10.4252L125.996 10.248ZM126.428 7.848V6.848H125.592L125.444 7.67085L126.428 7.848ZM128.636 7.848L129.621 8.0223L129.829 6.848H128.636V7.848ZM126.308 21V22H127.147L127.293 21.1743L126.308 21ZM124.1 21L123.117 20.8169L122.897 22H124.1V21ZM124.556 18.552L125.539 18.7351L123.756 17.952L124.556 18.552ZM122.276 20.472L122.741 21.3573L122.753 21.351L122.276 20.472ZM116.444 20.568L115.948 21.4362L115.955 21.4401L115.962 21.4438L116.444 20.568ZM125.276 14.4L124.294 14.2129L124.292 14.2253L125.276 14.4ZM124.316 10.56L123.609 11.2671L123.617 11.2753L123.626 11.2834L124.316 10.56ZM119.324 10.104L118.869 9.21336L118.862 9.21741L119.324 10.104ZM117.428 11.784L118.241 12.3669L118.241 12.3669L117.428 11.784ZM116.372 14.376L117.355 14.5631L117.357 14.5507L116.372 14.376ZM117.308 18.288L116.601 18.9952L116.61 19.0034L117.308 18.288ZM122.276 18.72L122.739 19.6066L122.746 19.6029L122.276 18.72ZM124.196 17.016L123.386 16.4299L123.384 16.4331L124.196 17.016ZM115.101 14.5518C115.317 13.3388 115.745 12.3045 116.37 11.4292L114.743 10.2668C113.928 11.4075 113.395 12.7252 113.132 14.2002L115.101 14.5518ZM116.368 11.4316C117.022 10.5224 117.797 9.83565 118.694 9.35247L117.746 7.59153C116.563 8.22835 115.563 9.12557 114.744 10.2644L116.368 11.4316ZM118.689 9.35546C119.602 8.87123 120.561 8.632 121.58 8.632V6.632C120.231 6.632 118.951 6.95277 117.752 7.58854L118.689 9.35546ZM121.58 8.632C122.591 8.632 123.337 8.84895 123.886 9.21077L124.987 7.54123C124.031 6.91105 122.874 6.632 121.58 6.632V8.632ZM123.886 9.21077C124.485 9.60596 124.858 10.0717 125.062 10.6056L126.93 9.89035C126.559 8.92028 125.892 8.13804 124.987 7.54123L123.886 9.21077ZM126.98 10.4252L127.412 8.02515L125.444 7.67085L125.012 10.0708L126.98 10.4252ZM126.428 8.848H128.636V6.848H126.428V8.848ZM127.652 7.6737L125.324 20.8257L127.293 21.1743L129.621 8.0223L127.652 7.6737ZM126.308 20H124.1V22H126.308V20ZM125.083 21.1831L125.539 18.7351L123.573 18.3689L123.117 20.8169L125.083 21.1831ZM123.756 17.952C123.276 18.5918 122.632 19.1414 121.799 19.593L122.753 21.351C123.808 20.7786 124.684 20.0482 125.356 19.152L123.756 17.952ZM121.811 19.5868C121.02 20.0025 120.141 20.216 119.156 20.216V22.216C120.443 22.216 121.645 21.9335 122.741 21.3572L121.811 19.5868ZM119.156 20.216C118.276 20.216 117.543 20.0316 116.927 19.6922L115.962 21.4438C116.914 21.9684 117.988 22.216 119.156 22.216V20.216ZM116.94 19.6998C116.325 19.348 115.849 18.8566 115.504 18.2041L113.736 19.1399C114.255 20.1194 114.996 20.892 115.948 21.4362L116.94 19.6998ZM115.504 18.2041C115.16 17.5539 114.972 16.7753 114.972 15.84H112.972C112.972 17.0487 113.217 18.1581 113.736 19.1399L115.504 18.2041ZM114.972 15.84C114.972 15.427 115.014 15.0027 115.098 14.566L113.134 14.186C113.027 14.7413 112.972 15.293 112.972 15.84H114.972ZM126.259 14.5871C126.336 14.1825 126.372 13.7593 126.372 13.32H124.372C124.372 13.6487 124.345 13.9455 124.294 14.2129L126.259 14.5871ZM126.372 13.32C126.372 11.9377 125.947 10.7345 125.007 9.83664L123.626 11.2834C124.093 11.7295 124.372 12.3663 124.372 13.32H126.372ZM125.023 9.85289C124.128 8.95739 122.984 8.528 121.676 8.528V10.528C122.513 10.528 123.129 10.7866 123.609 11.2671L125.023 9.85289ZM121.676 8.528C120.697 8.528 119.757 8.76008 118.869 9.21339L119.779 10.9946C120.395 10.6799 121.024 10.528 121.676 10.528V8.528ZM118.862 9.21741C117.975 9.68028 117.227 10.3497 116.616 11.2011L118.241 12.3669C118.686 11.7463 119.202 11.2957 119.787 10.9906L118.862 9.21741ZM116.616 11.2011C115.991 12.0716 115.587 13.0788 115.388 14.2013L117.357 14.5507C117.51 13.6892 117.809 12.9684 118.241 12.3669L116.616 11.2011ZM115.39 14.1889C115.312 14.5959 115.276 15.0275 115.276 15.48H117.276C117.276 15.1325 117.304 14.8281 117.355 14.5631L115.39 14.1889ZM115.276 15.48C115.276 16.8679 115.686 18.0803 116.601 18.9951L118.015 17.5809C117.554 17.1197 117.276 16.4601 117.276 15.48H115.276ZM116.61 19.0034C117.506 19.8795 118.648 20.296 119.948 20.296V18.296C119.105 18.296 118.486 18.0405 118.007 17.5726L116.61 19.0034ZM119.948 20.296C120.928 20.296 121.863 20.0637 122.739 19.6066L121.814 17.8334C121.218 18.1443 120.6 18.296 119.948 18.296V20.296ZM122.746 19.6029C123.642 19.126 124.397 18.4518 125.009 17.5989L123.384 16.4331C122.94 17.0522 122.414 17.514 121.807 17.8371L122.746 19.6029ZM125.006 17.6021C125.646 16.7177 126.061 15.7023 126.261 14.5747L124.292 14.2253C124.14 15.0817 123.834 15.8103 123.386 16.4299L125.006 17.6021ZM135.255 18.936L134.273 19.1252L134.8 21.859L136.133 19.4149L135.255 18.936ZM141.303 7.848V6.848H140.709L140.425 7.36915L141.303 7.848ZM143.655 7.848L144.524 8.34277L145.375 6.848H143.655V7.848ZM136.167 21V22H136.748L137.036 21.4948L136.167 21ZM133.599 21L132.621 21.2105L132.791 22H133.599V21ZM130.767 7.848V6.848H129.529L129.789 8.0585L130.767 7.848ZM133.119 7.848L134.101 7.65884L133.945 6.848H133.119V7.848ZM136.133 19.4149L142.181 8.32685L140.425 7.36915L134.377 18.4571L136.133 19.4149ZM141.303 8.848H143.655V6.848H141.303V8.848ZM142.786 7.35323L135.298 20.5052L137.036 21.4948L144.524 8.34277L142.786 7.35323ZM136.167 20H133.599V22H136.167V20ZM134.577 20.7895L131.745 7.6375L129.789 8.0585L132.621 21.2105L134.577 20.7895ZM130.767 8.848H133.119V6.848H130.767V8.848ZM132.137 8.03716L134.273 19.1252L136.237 18.7468L134.101 7.65884L132.137 8.03716ZM154.348 8.28L153.873 9.1599L153.883 9.16553L153.894 9.17091L154.348 8.28ZM156.196 10.056L155.317 10.5323L155.323 10.5433L155.329 10.5541L156.196 10.056ZM156.724 13.872L155.738 13.7076L155.736 13.7199L156.724 13.872ZM156.412 15.168V16.168H157.141L157.364 15.474L156.412 15.168ZM145.9 15.168V14.168H144.995L144.905 15.0685L145.9 15.168ZM146.836 18.456L146.147 19.1806L146.156 19.1892L146.165 19.1975L146.836 18.456ZM151.924 18.72L152.447 19.5723L152.452 19.5691L151.924 18.72ZM153.556 16.944V15.944H152.938L152.662 16.4968L153.556 16.944ZM155.908 16.944L156.818 17.3587L157.463 15.944H155.908V16.944ZM153.244 20.04L153.796 20.8738L153.799 20.8721L153.244 20.04ZM145.132 19.8L144.437 20.5186L144.443 20.5243L144.449 20.5299L145.132 19.8ZM143.788 14.4L144.772 14.5789L144.773 14.5738L143.788 14.4ZM145.252 10.824L146.064 11.4076L146.064 11.4076L145.252 10.824ZM147.964 8.472L148.417 9.36376L148.422 9.36114L147.964 8.472ZM154.516 13.584V14.584H155.377L155.505 13.7323L154.516 13.584ZM153.604 10.32L152.946 11.0726L152.955 11.0806L153.604 10.32ZM148.036 10.584L148.656 11.3689L148.664 11.3622L148.036 10.584ZM146.188 13.584L145.218 13.3415L144.907 14.584H146.188V13.584ZM151.492 8.632C152.465 8.632 153.247 8.82193 153.873 9.1599L154.823 7.40009C153.849 6.87407 152.727 6.632 151.492 6.632V8.632ZM153.894 9.17091C154.539 9.49967 155.002 9.9513 155.317 10.5323L157.075 9.57972C156.558 8.6247 155.789 7.89233 154.802 7.38909L153.894 9.17091ZM155.329 10.5541C155.663 11.1363 155.844 11.8244 155.844 12.648H157.844C157.844 11.5196 157.593 10.4797 157.063 9.55787L155.329 10.5541ZM155.844 12.648C155.844 12.9105 155.812 13.2601 155.738 13.7076L157.711 14.0364C157.796 13.5239 157.844 13.0575 157.844 12.648H155.844ZM155.736 13.7199C155.681 14.0781 155.59 14.4585 155.46 14.862L157.364 15.474C157.522 14.9815 157.64 14.4979 157.712 14.0241L155.736 13.7199ZM156.412 14.168H145.9V16.168H156.412V14.168ZM144.905 15.0685C144.873 15.3915 144.852 15.6662 144.852 15.864H146.852C146.852 15.7738 146.863 15.5845 146.895 15.2675L144.905 15.0685ZM144.852 15.864C144.852 17.1774 145.25 18.3275 146.147 19.1806L147.525 17.7314C147.11 17.3365 146.852 16.7586 146.852 15.864H144.852ZM146.165 19.1975C147.054 20.0015 148.18 20.368 149.452 20.368V18.368C148.58 18.368 147.962 18.1265 147.507 17.7145L146.165 19.1975ZM149.452 20.368C150.554 20.368 151.564 20.1141 152.447 19.5723L151.401 17.8677C150.876 18.1899 150.238 18.368 149.452 18.368V20.368ZM152.452 19.5691C153.324 19.0266 153.997 18.2976 154.451 17.3912L152.662 16.4968C152.379 17.0624 151.964 17.5174 151.396 17.8709L152.452 19.5691ZM153.556 17.944H155.908V15.944H153.556V17.944ZM154.998 16.5293C154.502 17.6171 153.741 18.5071 152.689 19.2079L153.799 20.8721C155.148 19.9729 156.162 18.7989 156.818 17.3587L154.998 16.5293ZM152.692 19.2062C151.689 19.8706 150.509 20.216 149.116 20.216V22.216C150.859 22.216 152.432 21.7774 153.796 20.8738L152.692 19.2062ZM149.116 20.216C147.67 20.216 146.604 19.808 145.816 19.0701L144.449 20.5299C145.677 21.68 147.266 22.216 149.116 22.216V20.216ZM145.828 19.0814C145.067 18.3458 144.644 17.3217 144.644 15.888H142.644C142.644 17.7503 143.213 19.3342 144.437 20.5186L145.828 19.0814ZM144.644 15.888C144.644 15.4924 144.685 15.0568 144.772 14.5789L142.804 14.2211C142.699 14.7992 142.644 15.3556 142.644 15.888H144.644ZM144.773 14.5738C144.989 13.3474 145.424 12.2985 146.064 11.4076L144.44 10.2404C143.608 11.3975 143.067 12.7326 142.803 14.2262L144.773 14.5738ZM146.064 11.4076C146.711 10.5071 147.494 9.83172 148.417 9.36375L147.512 7.58025C146.29 8.20027 145.265 9.09294 144.44 10.2404L146.064 11.4076ZM148.422 9.36114C149.363 8.87644 150.382 8.632 151.492 8.632V6.632C150.074 6.632 148.741 6.94756 147.506 7.58286L148.422 9.36114ZM155.505 13.7323C155.559 13.3721 155.588 13.0259 155.588 12.696H153.588C153.588 12.9101 153.569 13.1559 153.527 13.4357L155.505 13.7323ZM155.588 12.696C155.588 11.4398 155.174 10.3454 154.253 9.55944L152.955 11.0806C153.346 11.4146 153.588 11.9042 153.588 12.696H155.588ZM154.263 9.56742C153.402 8.81437 152.31 8.48 151.084 8.48V10.48C151.938 10.48 152.526 10.7056 152.946 11.0726L154.263 9.56742ZM151.084 8.48C149.724 8.48 148.489 8.93347 147.408 9.8058L148.664 11.3622C149.407 10.7625 150.204 10.48 151.084 10.48V8.48ZM147.416 9.79912C146.308 10.6745 145.584 11.8774 145.218 13.3415L147.158 13.8265C147.432 12.7306 147.941 11.9335 148.656 11.3689L147.416 9.79912ZM146.188 14.584H154.516V12.584H146.188V14.584ZM170.383 8.712L169.713 9.45461L169.721 9.46184L170.383 8.712ZM171.487 13.248L170.506 13.0519L170.504 13.063L170.502 13.0742L171.487 13.248ZM170.119 21V22H170.958L171.104 21.1738L170.119 21ZM167.959 21L166.974 20.8253L166.766 22H167.959V21ZM169.279 13.56L168.297 13.3729L168.294 13.3853L169.279 13.56ZM168.559 10.272L167.863 10.9899L167.868 10.9951L167.874 11.0002L168.559 10.272ZM163.375 10.584L162.713 9.83413L162.706 9.84071L163.375 10.584ZM161.815 13.728H160.815L162.8 13.8998L161.815 13.728ZM161.815 13.68H162.815L160.83 13.5057L161.815 13.68ZM160.519 21V22H161.357L161.504 21.1743L160.519 21ZM158.335 21L157.35 20.8257L157.142 22H158.335V21ZM160.663 7.848V6.848H159.824L159.678 7.6737L160.663 7.848ZM162.847 7.848L163.832 8.0225L164.04 6.848H162.847V7.848ZM162.511 9.744L161.526 9.5695L163.295 10.3642L162.511 9.744ZM164.551 8.16L164.962 9.07159L164.962 9.07159L164.551 8.16ZM167.119 8.608C168.293 8.608 169.122 8.92123 169.713 9.45457L171.053 7.96943C170.012 7.03077 168.665 6.608 167.119 6.608V8.608ZM169.721 9.46184C170.265 9.94187 170.607 10.6893 170.607 11.88H172.607C172.607 10.2867 172.133 8.92213 171.045 7.96216L169.721 9.46184ZM170.607 11.88C170.607 12.342 170.571 12.7303 170.506 13.0519L172.468 13.4441C172.563 12.9657 172.607 12.442 172.607 11.88H170.607ZM170.502 13.0742L169.134 20.8262L171.104 21.1738L172.472 13.4218L170.502 13.0742ZM170.119 20H167.959V22H170.119V20ZM168.944 21.1747L170.264 13.7347L168.294 13.3853L166.974 20.8253L168.944 21.1747ZM170.261 13.7471C170.338 13.345 170.375 12.9301 170.375 12.504H168.375C168.375 12.8139 168.348 13.103 168.297 13.3729L170.261 13.7471ZM170.375 12.504C170.375 11.341 170.046 10.298 169.244 9.5438L167.874 11.0002C168.16 11.27 168.375 11.715 168.375 12.504H170.375ZM169.255 9.5541C168.489 8.81106 167.465 8.504 166.327 8.504V10.504C167.109 10.504 167.573 10.7089 167.863 10.9899L169.255 9.5541ZM166.327 8.504C164.947 8.504 163.723 8.94295 162.713 9.83416L164.037 11.3338C164.659 10.785 165.403 10.504 166.327 10.504V8.504ZM162.706 9.84071C161.696 10.7499 161.097 12.0259 160.83 13.5562L162.8 13.8998C163.013 12.6781 163.454 11.8581 164.044 11.3273L162.706 9.84071ZM162.815 13.728V13.68H160.815V13.728H162.815ZM160.83 13.5057L159.534 20.8257L161.504 21.1743L162.8 13.8543L160.83 13.5057ZM160.519 20H158.335V22H160.519V20ZM159.32 21.1743L161.648 8.0223L159.678 7.6737L157.35 20.8257L159.32 21.1743ZM160.663 8.848H162.847V6.848H160.663V8.848ZM161.862 7.6735L161.526 9.5695L163.496 9.9185L163.832 8.0225L161.862 7.6735ZM163.295 10.3642C163.738 9.8045 164.289 9.37517 164.962 9.07159L164.14 7.24841C163.181 7.68083 162.372 8.3075 161.727 9.12376L163.295 10.3642ZM164.962 9.07159C165.649 8.76192 166.365 8.608 167.119 8.608V6.608C166.081 6.608 165.085 6.82208 164.14 7.24841L164.962 9.07159Z" fill="#88D791"/>
</g>
<defs>
<filter id="filter0_d_1_10" x="0.255997" y="0.736" width="177.351" height="26.48" filterUnits="userSpaceOnUse" color-interpolation-filters="sRGB">
<feFlood flood-opacity="0" result="BackgroundImageFix"/>
<feColorMatrix in="SourceAlpha" type="matrix" values="0 0 0 0 0 0 0 0 0 0 0 0 0 0 0 0 0 0 127 0" result="hardAlpha"/>
<feOffset dx="2" dy="2"/>
<feGaussianBlur stdDeviation="2"/>
<feComposite in2="hardAlpha" operator="out"/>
<feColorMatrix type="matrix" values="0 0 0 0 0.533333 0 0 0 0 0.843137 0 0 0 0 0.568627 0 0 0 1 0"/>
<feBlend mode="normal" in2="BackgroundImageFix" result="effect1_dropShadow_1_10"/>
<feBlend mode="normal" in="SourceGraphic" in2="effect1_dropShadow_1_10" result="shape"/>
</filter>
</defs>
</svg>
