<svg xmlns="http://www.w3.org/2000/svg" width="60" height="60" viewBox="0 0 15.875 15.875" id="notes"><path d="m 1.631425,0.26871744 c -0.1053537,0 -0.1901693,0.0848155 -0.1901693,0.19016927 V 1.5342732 h 1.1363649 c 0.4918427,0 0.8960691,0.4042265 0.8960691,0.8960694 v 0.6082316 c 0,0.4918429 -0.4042264,0.8960694 -0.8960691,0.8960694 H 1.4412557 v 2.8132648 h 1.1363649 c 0.4918427,0 0.8960691,0.4042264 0.8960691,0.8960694 v 0.6082315 c 0,0.491843 -0.4042264,0.8960694 -0.8960691,0.8960694 H 1.4412557 v 2.8132653 h 1.1363649 c 0.4918427,0 0.8960691,0.404226 0.8960691,0.896069 v 0.608231 c 0,0.491843 -0.404487,0.895553 -0.8960691,0.895553 H 1.4412557 v 1.045414 c 0,0.105354 0.084815,0.19017 0.1901693,0.19017 H 4.81521 V 0.26871744 Z m 3.7129517,0 V 15.596981 H 15.27452 c 0.105353,0 0.190169,-0.08482 0.190169,-0.19017 V 0.45888671 c 0,-0.10535377 -0.08482,-0.19016927 -0.190169,-0.19016927 z M 8.0398194,2.0469035 h 4.3397866 c 0.491812,0 0.896069,0.4047737 0.896069,0.896586 V 4.882906 c 0,0.4918122 -0.404257,0.8965861 -0.896069,0.8965861 H 8.0398194 c -0.4918123,0 -0.8965861,-0.4047739 -0.8965861,-0.8965861 V 2.9434895 c 0,-0.4918123 0.4047738,-0.896586 0.8965861,-0.896586 z m -7.26260579,0.016536 c -0.20777676,0 -0.36690268,0.1591259 -0.36690268,0.3669027 v 0.6082316 c 5e-8,0.2077767 0.15912592,0.3669027 0.36690268,0.3669027 H 2.5776206 c 0.207776,0 0.3669025,-0.159126 0.3669025,-0.3669027 V 2.4303426 c 0,-0.2077768 -0.1591265,-0.3669027 -0.3669025,-0.3669027 z M 8.0398194,2.5760701 c -0.2078072,0 -0.3674195,0.1596123 -0.3674195,0.3674194 V 4.882906 c 0,0.2078072 0.1596123,0.3669027 0.3674195,0.3669027 h 4.3397866 c 0.207807,0 0.366903,-0.1590955 0.366903,-0.3669027 V 2.9434895 c 0,-0.2078071 -0.159096,-0.3674194 -0.366903,-0.3674194 z M 0.77721361,7.277075 c -0.20777676,0 -0.36690268,0.159126 -0.36690268,0.3669028 v 0.6082315 c 5e-8,0.2077768 0.15912592,0.3669028 0.36690268,0.3669028 H 2.5776206 c 0.207776,0 0.3669025,-0.159126 0.3669025,-0.3669028 V 7.6439778 c 0,-0.2077768 -0.1591265,-0.3669028 -0.3669025,-0.3669028 z m 0,5.213635 c -0.20777676,0 -0.36690268,0.159126 -0.36690268,0.366903 v 0.608231 c 5e-8,0.207779 0.15886535,0.366386 0.36690268,0.366386 H 2.5776206 c 0.2080369,0 0.3669025,-0.158607 0.3669025,-0.366386 v -0.608231 c 0,-0.207777 -0.1591265,-0.366903 -0.3669025,-0.366903 z"></path></svg>