<svg xmlns="http://www.w3.org/2000/svg" enable-background="new 0 0 32 32" viewBox="0 0 32 32" id="switch"><path d="M14.30273.61464c-.56104-.23389-1.20654-.104-1.63477.3252L5.68506 7.92275c-.58594.58545-.58594 1.53565 0 2.12109.58594.58594 1.53516.58594 2.12109 0l4.42236-4.42236v24.37891c0 .82861.67139 1.5 1.5 1.5s1.5-.67139 1.5-1.5v-28C15.22852 1.39345 14.86328.84657 14.30273.61464zM26.31494 21.95692c-.58594-.58594-1.53516-.58594-2.12109 0l-4.42236 4.42236V2.00038c0-.82861-.67139-1.5-1.5-1.5s-1.5.67139-1.5 1.5v28c0 .60693.36523 1.15381.92578 1.38574.18555.07715.38086.11426.57373.11426.39063 0 .77441-.15234 1.06104-.43945l6.98291-6.98291C26.90088 23.49257 26.90088 22.54237 26.31494 21.95692z"></path></svg>