<svg xmlns="http://www.w3.org/2000/svg" data-name="Layer 1" viewBox="0 0 64 64" id="agreement"><path fill="#cfd8dc" d="M51 15H41V5l10 10z"></path><path fill="#fff" d="M51 15v38H37v-2.76a2.92 2.92 0 0 0 .27-.24 8 8 0 1 0-10.54 0 2.92 2.92 0 0 0 .27.24V53H13V5h28v10Z"></path><path fill="#ef5350" d="m35.25 43.26 1.44 1.81-2.09 1.01-.51 2.26L32 47.33l-2.09 1.01-.51-2.26-2.09-1.01 1.44-1.81-.51-2.26h2.32L32 39.19 33.44 41h2.32l-.51 2.26z"></path><path fill="#ffee58" d="M32 36a8 8 0 1 1-8 8 8 8 0 0 1 8-8Zm4.69 9.07-1.44-1.81.51-2.26h-2.32L32 39.19 30.56 41h-2.32l.51 2.26-1.44 1.81 2.09 1 .51 2.26 2.09-1 2.09 1 .51-2.26Z"></path><path fill="#ef5350" d="M27 50.24a8 8 0 0 0 10 0V59l-5-2-5 2v-8.76Z"></path><path fill="#90a4ae" d="M43 20H21a1 1 0 0 1 0-2h22a1 1 0 0 1 0 2zm0 6H21a1 1 0 0 1 0-2h22a1 1 0 0 1 0 2zm0 6H21a1 1 0 0 1 0-2h22a1 1 0 0 1 0 2z"></path><path fill="#01579b" d="M34.09 49.34a1 1 0 0 1-.43-.1l-1.66-.8-1.66.8a1 1 0 0 1-1.41-.68l-.4-1.79-1.66-.77a1 1 0 0 1-.35-1.52L27.67 43l-.4-1.79a1 1 0 0 1 1-1.22h1.84l1.14-1.43a1 1 0 0 1 1.56 0L33.92 40h1.84a1 1 0 0 1 1 1.22L36.33 43l1.14 1.44a1 1 0 0 1-.34 1.56l-1.66.8-.4 1.79a1 1 0 0 1-1 .78Zm-2.09-3a1 1 0 0 1 .43.1l1 .46.23-1a1 1 0 0 1 .54-.68l1-.47-.66-.83a1 1 0 0 1-.19-.84l.23-1h-1.14a1 1 0 0 1-.78-.38l-.66-.9-.66.83a1 1 0 0 1-.78.38h-1.07l.23 1a1 1 0 0 1-.19.84l-.66.83 1 .47a1 1 0 0 1 .54.68l.23 1 1-.46a1 1 0 0 1 .36-.04Z"></path><path fill="#cfd8dc" d="M26.73 50a2.92 2.92 0 0 0 .27.24V53H13v-3zM51 50v3H37v-2.76a2.92 2.92 0 0 0 .27-.24zm0-35v2H40a1 1 0 0 1-1-1V5h2v10z"></path><path fill="#01579b" d="M51.92 14.62a1 1 0 0 0-.22-.32l-10-10A1 1 0 0 0 41 4H13a1 1 0 0 0-1 1v48a1 1 0 0 0 1 1h13v5a1 1 0 0 0 1.37.93L32 58.08l4.63 1.85A1 1 0 0 0 38 59v-5h13a1 1 0 0 0 1-1V15a1 1 0 0 0-.08-.38ZM42 7.41 48.59 14H42Zm-5.62 42A7 7 0 1 1 39 44a7 7 0 0 1-2.63 5.46ZM36 57.52l-3.63-1.45a1 1 0 0 0-.74 0L28 57.52V52a8.89 8.89 0 0 0 8 0ZM38 52v-1.31a9 9 0 1 0-12 0V52H14V6h26v9a1 1 0 0 0 1 1h9v36Z"></path></svg>