<svg xmlns="http://www.w3.org/2000/svg" viewBox="0 0 64 64" id="video-tutorial"><g data-name="video tutorial"><path fill="#fff" d="M9,9H55a2,2,0,0,1,2,2V45a0,0,0,0,1,0,0H7a0,0,0,0,1,0,0V11A2,2,0,0,1,9,9Z"></path><path fill="#7accbe" d="M61,47v3a5,5,0,0,1-5,5H8a5,5,0,0,1-5-5V47a2,2,0,0,1,2-2H59A2,2,0,0,1,61,47Z"></path><path fill="#61c3b6" d="M50.21,45a31.41,31.41,0,0,1-5.79,10H8a5,5,0,0,1-5-5V47a2,2,0,0,1,2-2Z"></path><path fill="#fff" d="M38,45.24l-.62,2.49A3,3,0,0,1,34.44,50H29.56a3,3,0,0,1-2.91-2.27L26,45.24a1,1,0,0,1,.18-.86A1,1,0,0,1,27,44H37a1,1,0,0,1,.79.38A1,1,0,0,1,38,45.24Z"></path><path fill="#4e5b5f" d="M59,44H58V11a3,3,0,0,0-3-3H9a3,3,0,0,0-3,3V44H5a3,3,0,0,0-3,3v2a7,7,0,0,0,7,7H55a7,7,0,0,0,7-7V47A3,3,0,0,0,59,44ZM8,11a1,1,0,0,1,1-1H55a1,1,0,0,1,1,1V44H8ZM60,49a5,5,0,0,1-5,5H9a5,5,0,0,1-5-5V47a1,1,0,0,1,1-1H59a1,1,0,0,1,1,1Z"></path><circle cx="32" cy="29" r="12" fill="#e6e6e6"></circle><path fill="#ffa88a" d="M44,27A12,12,0,1,1,32,15,12,12,0,0,1,44,27Z"></path><path fill="#fd9467" d="M40,24A12,12,0,0,1,28,36a11.89,11.89,0,0,1-5-1.1A12,12,0,0,1,37,16.1,11.89,11.89,0,0,1,40,24Z"></path><path fill="#fff" d="M36.45,26.11l-8-4A1,1,0,0,0,27,23v8a1,1,0,0,0,.47.85A1,1,0,0,0,28,32a1,1,0,0,0,.45-.11l8-4a1,1,0,0,0,0-1.78Z"></path></g></svg>